<svg xmlns="http://www.w3.org/2000/svg" xmlns:xlink="http://www.w3.org/1999/xlink" viewBox="0 0 762 274"><defs><style>.cls-1{isolation:isolate;}.cls-2{fill:#fff;}.cls-3{fill:#cc5e00;}.cls-4{fill:#3c2100;}.cls-5{fill:#ff0;}.cls-6{mix-blend-mode:multiply;}.cls-7{fill:url(#linear-gradient);}.cls-8{fill:#ef8829;}.cls-9{fill:#3f2d20;}.cls-10{fill:#84bd93;}.cls-11{fill:url(#linear-gradient-3);}</style><linearGradient id="linear-gradient" x1="851.455" y1="303.0975" x2="851.455" y2="418.7287" gradientUnits="userSpaceOnUse"><stop offset="0" stop-color="#fff"/><stop offset="0.5251" stop-color="#fff"/><stop offset="0.595" stop-color="#ff8037"/><stop offset="0.6453" stop-color="#ff5e02"/><stop offset="1" stop-color="#ff0" stop-opacity="0"/></linearGradient><linearGradient id="linear-gradient-3" x1="471.7571" y1="263.5067" x2="471.7571" y2="403.8857" xlink:href="#linear-gradient"/></defs><g class="cls-1"><g id="Layer_1" data-name="Layer 1"><rect class="cls-2" x="0.5" y="0.5" width="761" height="273"/><path class="cls-2" d="M986,190V462H226V190H986m1-1H225V463H987V189Z" transform="translate(-225 -189)"/><path class="cls-2" d="M848.958,344.5972c-4.05,21.8994-19.8,35.5488-36.4492,30.749a10.88,10.88,0,0,1-3.749-1.8c-2.8506,18.8989-7.05,32.8491-12.6,39.7485-10.35,13.35-23.1-2.1-23.1-2.1s17.85-15.75,19.35-67.0478c1.05-34.0489,7.9492-41.5484,19.7988-37.0489a37.35,37.35,0,0,1,.45,7.2l-.45,17.25c3-9.3,9-22.0494,20.85-22.9493C845.5078,307.6987,852.8574,323.8979,848.958,344.5972Zm-39.2988,22.0493a6.7876,6.7876,0,0,0,3.9,1.35c7.1992.3,13.0488-10.8,15.749-21,3.1494-11.3994,3.75-26.2486-1.05-27.4488-4.3506-1.35-11.85,7.05-16.9492,27.5987C811.0088,354.0469,810.4092,360.6465,809.6592,366.6465Z" transform="translate(-225 -189)"/><path class="cls-2" d="M929.2051,355.2471c-5.55,14.3994-15.8994,24.8989-27.5987,21.749-6.75-1.65-9.8994-8.4-10.8-18-3.75,8.4-10.05,16.6494-19.6494,17.25-11.8486.9-17.6992-9.75-15.8984-19.5,1.6494-8.85,8.3994-15.5991,19.6484-17.6992a106.3638,106.3638,0,0,0,16.9492-4.8c.3008-2.4.75-4.6495,1.0508-7.0494,1.1992-6.75-.3008-15.6-6.6006-16.95-7.499-1.65-12.749.75-14.5488,6.6-2.55,8.1,5.85,10.5,13.1992,3.45,0,0,7.6494,10.2-2.85,14.1-11.25,4.35-22.0488-3.15-18.3-16.2,2.8506-9.45,12.75-17.8491,29.249-14.25,13.5,3,20.1,12.15,15.4493,37.3487-2.55,13.5-2.25,26.0991,2.25,27.1489,4.8,1.05,11.25-8.25,15-18.8989h.1494C928.7549,348.4971,931.0049,350.5972,929.2051,355.2471Zm-37.9483-15.75-5.55,1.8c-6.4492,1.95-9.6,4.8-11.249,10.8-2.1006,7.7993-.45,12.8994,3.749,13.3491,4.2.3,9.3-6.75,12.75-22.6489Z" transform="translate(-225 -189)"/><path class="cls-3" d="M786.5537,441.7285c-17.2422,0-29.042-13.2392-31.2324-15.8935a23.0013,23.0013,0,0,1,1.7031-31.128c1.06-1.2871,11.3272-14.7021,12.3955-51.2319.5176-16.7954,2.3828-28.7031,5.8721-37.5107,8.2393-20.8028,24.64-23.0489,31.3076-23.0489a38.8512,38.8512,0,0,1,13.7744,2.6812,23.0074,23.0074,0,0,1,3.127,1.4643,39.529,39.529,0,0,1,7.8164-1.3964c.9609-.0694,1.8486-.1016,2.7226-.1016a35.6927,35.6927,0,0,1,27.8125,13.3379c9.9014,11.9394,13.44,30.1474,9.708,49.9541-4.8984,26.4883-22.5888,45.8872-44.3593,49.7475-3.3164,12.7246-7.5684,22.1436-12.9922,28.9493C807.05,436.6953,797.2363,441.7285,786.5537,441.7285Z" transform="translate(-225 -189)"/><path class="cls-3" d="M905.7754,400.5576a39.049,39.049,0,0,1-9.918-1.291,34.4474,34.4474,0,0,1-8.9-3.6816,40.7538,40.7538,0,0,1-14.2129,3.6064c-.9921.0713-1.9912.1084-2.9726.1084a36.7094,36.7094,0,0,1-28.7363-13.291,41.0625,41.0625,0,0,1-8.3936-33.44,43.2626,43.2626,0,0,1,8.7988-19.2631,39.1275,39.1275,0,0,1,.2617-21.4585c.0274-.0977.0567-.1949.086-.292,5.7646-19.11,22.9463-31.458,43.7734-31.458a58.3056,58.3056,0,0,1,12.3975,1.38c18.0488,4.01,26.4912,14.7012,30.41,22.9663,3.0772,6.4883,4.6094,13.8379,4.626,22.4786a25.3467,25.3467,0,0,1,15.3018,10.3715c5.084,7.4205,5.9433,16.99,2.3574,26.2554C941.7275,386.71,924.9463,400.5557,905.7754,400.5576Z" transform="translate(-225 -189)"/><path class="cls-4" d="M786.5537,433.7285c-13.6533,0-23.2724-10.8174-25.0625-12.9853-2.5918-3.1416-4.1982-6.8711-3.7363-10.918a13.8507,13.8507,0,0,1,5.1709-9.7129c1.5576-1.7822,13.3252-16.5537,14.4912-56.4033.4873-15.8286,2.1758-26.8789,5.3125-34.7988,6.4326-16.2413,18.8359-17.9947,23.87-17.9947a30.476,30.476,0,0,1,10.9346,2.16,14.982,14.982,0,0,1,4.6777,2.8452,31.8875,31.8875,0,0,1,9.711-2.2793c.7412-.0537,1.4345-.0786,2.1171-.0786a27.8234,27.8234,0,0,1,21.6543,10.4443c8.376,10.1006,11.294,25.9073,8.0049,43.3667-4.665,25.2217-22.2119,43.0537-42.9678,43.9014-3.2128,14.2832-7.4384,24.6006-12.8007,31.3174C802.3184,429.7754,794.7314,433.7285,786.5537,433.7285Z" transform="translate(-225 -189)"/><path class="cls-4" d="M905.7744,392.5576a31.0365,31.0365,0,0,1-7.9082-1.0351,26.1938,26.1938,0,0,1-10.4228-5.2959,32.2108,32.2108,0,0,1-15.2491,4.9834c-.8095.06-1.624.09-2.4228.09a28.8365,28.8365,0,0,1-22.5869-10.4087,32.98,32.98,0,0,1-6.6768-26.8686,35.24,35.24,0,0,1,10.0449-18.9849c-2.8838-6.2241-3.3134-13.4907-1.1621-20.981.0186-.0634.0371-.1269.0567-.19,4.7216-15.6538,18.8974-25.7685,36.1142-25.7685a50.3352,50.3352,0,0,1,10.6924,1.1958c11.9443,2.6543,20.2979,8.9,24.8867,18.5781,3.3819,7.1318,4.5264,15.728,3.4815,26.604a18.4582,18.4582,0,0,1,2.6631-.1939,17.4341,17.4341,0,0,1,14.4121,7.5342c2.0976,3.062,5.082,9.5816,1.4961,18.8457C935.499,380.625,921.5078,392.5566,905.7744,392.5576Z" transform="translate(-225 -189)"/><path class="cls-5" d="M848.958,344.5972c-4.05,21.8994-19.8,35.5488-36.4492,30.749a10.88,10.88,0,0,1-3.749-1.8c-2.8506,18.8989-7.05,32.8491-12.6,39.7485-10.35,13.35-23.1-2.1-23.1-2.1s17.85-15.75,19.35-67.0478c1.05-34.0489,7.9492-41.5484,19.7988-37.0489a37.35,37.35,0,0,1,.45,7.2l-.45,17.25c3-9.3,9-22.0494,20.85-22.9493C845.5078,307.6987,852.8574,323.8979,848.958,344.5972Zm-39.2988,22.0493a6.7876,6.7876,0,0,0,3.9,1.35c7.1992.3,13.0488-10.8,15.749-21,3.1494-11.3994,3.75-26.2486-1.05-27.4488-4.3506-1.35-11.85,7.05-16.9492,27.5987C811.0088,354.0469,810.4092,360.6465,809.6592,366.6465Z" transform="translate(-225 -189)"/><path class="cls-5" d="M929.2051,355.2471c-5.55,14.3994-15.8994,24.8989-27.5987,21.749-6.75-1.65-9.8994-8.4-10.8-18-3.75,8.4-10.05,16.6494-19.6494,17.25-11.8486.9-17.6992-9.75-15.8984-19.5,1.6494-8.85,8.3994-15.5991,19.6484-17.6992a106.3638,106.3638,0,0,0,16.9492-4.8c.3008-2.4.75-4.6495,1.0508-7.0494,1.1992-6.75-.3008-15.6-6.6006-16.95-7.499-1.65-12.749.75-14.5488,6.6-2.55,8.1,5.85,10.5,13.1992,3.45,0,0,7.6494,10.2-2.85,14.1-11.25,4.35-22.0488-3.15-18.3-16.2,2.8506-9.45,12.75-17.8491,29.249-14.25,13.5,3,20.1,12.15,15.4493,37.3487-2.55,13.5-2.25,26.0991,2.25,27.1489,4.8,1.05,11.25-8.25,15-18.8989h.1494C928.7549,348.4971,931.0049,350.5972,929.2051,355.2471Zm-37.9483-15.75-5.55,1.8c-6.4492,1.95-9.6,4.8-11.249,10.8-2.1006,7.7993-.45,12.8994,3.749,13.3491,4.2.3,9.3-6.75,12.75-22.6489Z" transform="translate(-225 -189)"/><g class="cls-6"><path class="cls-7" d="M848.958,344.5972c-4.05,21.8994-19.8,35.5488-36.4492,30.749a10.88,10.88,0,0,1-3.749-1.8c-2.8506,18.8989-7.05,32.8491-12.6,39.7485-10.35,13.35-23.1-2.1-23.1-2.1s17.85-15.75,19.35-67.0478c1.05-34.0489,7.9492-41.5484,19.7988-37.0489a37.35,37.35,0,0,1,.45,7.2l-.45,17.25c3-9.3,9-22.0494,20.85-22.9493C845.5078,307.6987,852.8574,323.8979,848.958,344.5972Zm-39.2988,22.0493a6.7876,6.7876,0,0,0,3.9,1.35c7.1992.3,13.0488-10.8,15.749-21,3.1494-11.3994,3.75-26.2486-1.05-27.4488-4.3506-1.35-11.85,7.05-16.9492,27.5987C811.0088,354.0469,810.4092,360.6465,809.6592,366.6465Z" transform="translate(-225 -189)"/><path class="cls-7" d="M929.2051,355.2471c-5.55,14.3994-15.8994,24.8989-27.5987,21.749-6.75-1.65-9.8994-8.4-10.8-18-3.75,8.4-10.05,16.6494-19.6494,17.25-11.8486.9-17.6992-9.75-15.8984-19.5,1.6494-8.85,8.3994-15.5991,19.6484-17.6992a106.3638,106.3638,0,0,0,16.9492-4.8c.3008-2.4.75-4.6495,1.0508-7.0494,1.1992-6.75-.3008-15.6-6.6006-16.95-7.499-1.65-12.749.75-14.5488,6.6-2.55,8.1,5.85,10.5,13.1992,3.45,0,0,7.6494,10.2-2.85,14.1-11.25,4.35-22.0488-3.15-18.3-16.2,2.8506-9.45,12.75-17.8491,29.249-14.25,13.5,3,20.1,12.15,15.4493,37.3487-2.55,13.5-2.25,26.0991,2.25,27.1489,4.8,1.05,11.25-8.25,15-18.8989h.1494C928.7549,348.4971,931.0049,350.5972,929.2051,355.2471Zm-37.9483-15.75-5.55,1.8c-6.4492,1.95-9.6,4.8-11.249,10.8-2.1006,7.7993-.45,12.8994,3.749,13.3491,4.2.3,9.3-6.75,12.75-22.6489Z" transform="translate(-225 -189)"/></g><path class="cls-8" d="M741.0367,302.2961c.3581-.1513.7374-.29,1.1346-.4147Q741.5748,302.0692,741.0367,302.2961Z" transform="translate(-225 -189)"/><path class="cls-8" d="M738,304.1048c.2189-.1756.46-.354.7161-.5324C738.4585,303.7508,738.2188,303.9288,738,304.1048Z" transform="translate(-225 -189)"/><path class="cls-8" d="M742.419,301.809a12.8287,12.8287,0,0,1,1.3318-.32A12.9262,12.9262,0,0,0,742.419,301.809Z" transform="translate(-225 -189)"/><path class="cls-8" d="M737.3192,304.6914c.1665-.1541.3529-.3162.5529-.4815C737.6716,304.3752,737.4857,304.5368,737.3192,304.6914Z" transform="translate(-225 -189)"/><path class="cls-8" d="M743.75,301.4891c.5147.7388.885,1.3067,1.17,1.7877A12.3955,12.3955,0,0,0,743.75,301.4891Z" transform="translate(-225 -189)"/><path class="cls-8" d="M758.3543,308.2415q.4727.3342.9388.6781Q758.8281,308.5751,758.3543,308.2415Z" transform="translate(-225 -189)"/><path class="cls-8" d="M760.924,310.1838c.2873.2312.58.4563.8619.6935C761.5038,310.6405,761.2117,310.415,760.924,310.1838Z" transform="translate(-225 -189)"/><path class="cls-8" d="M739.8667,302.86c.2991-.1639.6209-.32.9563-.4694C740.4871,302.54,740.1663,302.6964,739.8667,302.86Z" transform="translate(-225 -189)"/><path class="cls-8" d="M755.735,306.4978c.2854.1769.5638.3638.8454.5459C756.2983,306.8615,756.02,306.6747,755.735,306.4978Z" transform="translate(-225 -189)"/><path class="cls-8" d="M766.1775,315.0215c.318.3367.6261.6827.9351,1.0279C766.8031,315.7038,766.496,315.3582,766.1775,315.0215Z" transform="translate(-225 -189)"/><path class="cls-8" d="M768.2283,317.3331c.3095.369.6161.74.9152,1.1171C768.8444,318.0729,768.5378,317.7025,768.2283,317.3331Z" transform="translate(-225 -189)"/><path class="cls-8" d="M738.902,303.4468c.274-.183.5628-.3656.8774-.5408C739.4643,303.0812,739.176,303.2633,738.902,303.4468Z" transform="translate(-225 -189)"/><path class="cls-8" d="M764.7184,313.5486c-.2373-.2321-.4652-.4731-.7072-.7005C764.2532,313.0755,764.4811,313.3165,764.7184,313.5486Z" transform="translate(-225 -189)"/><path class="cls-8" d="M729.5926,304.0539a3.5292,3.5292,0,0,1,.0538-.5795A3.5343,3.5343,0,0,0,729.5926,304.0539Z" transform="translate(-225 -189)"/><path class="cls-8" d="M737.2527,304.7516c-.1826.1714-.3388.3293-.4789.4773C736.913,305.0818,737.0715,304.9221,737.2527,304.7516Z" transform="translate(-225 -189)"/><path class="cls-8" d="M729.8851,302.6964a3.5172,3.5172,0,0,1,.3005-.5619A3.5605,3.5605,0,0,0,729.8851,302.6964Z" transform="translate(-225 -189)"/><path class="cls-8" d="M729.6832,303.3207a3.5246,3.5246,0,0,1,.1358-.4553A3.4251,3.4251,0,0,0,729.6832,303.3207Z" transform="translate(-225 -189)"/><path class="cls-8" d="M676.39,355.6624c-.0646-.6039-.1075-1.2138-.1505-1.8237C676.2831,354.4486,676.3256,355.0585,676.39,355.6624Z" transform="translate(-225 -189)"/><path class="cls-8" d="M685.876,380.2253c-.3618-.4978-.72-.998-1.0638-1.5084C685.1561,379.2278,685.5146,379.7275,685.876,380.2253Z" transform="translate(-225 -189)"/><path class="cls-8" d="M693.3459,388.4959q-.9312-.8307-1.821-1.7041Q692.4144,387.6654,693.3459,388.4959Z" transform="translate(-225 -189)"/><path class="cls-8" d="M687.6376,382.52c-.4548-.5576-.9016-1.1217-1.3328-1.698C686.736,381.3984,687.1828,381.9621,687.6376,382.52Z" transform="translate(-225 -189)"/><path class="cls-8" d="M682.9355,375.6959c-.2689-.4657-.5345-.9336-.7888-1.4085C682.401,374.7623,682.6666,375.23,682.9355,375.6959Z" transform="translate(-225 -189)"/><path class="cls-8" d="M684.331,377.9744c-.3081-.4745-.6133-.9513-.9058-1.4365C683.7177,377.0231,684.0229,377.4994,684.331,377.9744Z" transform="translate(-225 -189)"/><path class="cls-8" d="M729.81,305.2915a3.47,3.47,0,0,1-.1246-.4142A3.5651,3.5651,0,0,0,729.81,305.2915Z" transform="translate(-225 -189)"/><path class="cls-8" d="M769.3954,318.7823c-3.0532-2.7012-11.07-8.97-15.8819-10.282a14.2879,14.2879,0,0,0-.2152-2.0992,17.1513,17.1513,0,0,1,.1246,4.4977,3.5372,3.5372,0,0,1-3.5085,3.0206,3.5926,3.5926,0,0,1-.5015-.0355,3.5183,3.5183,0,0,1-3.0193-3.9415,11.4719,11.4719,0,0,0-.4675-4.2376c.0684.2676.1377.5506.2231.8873-.6968-.3456-4.2577-1.4048-9.7839-.9074.0906-.1083.209-.2419.3425-.3853a8.25,8.25,0,0,0-.6331.7542,3.5279,3.5279,0,0,1-2.9382,1.557,3.5788,3.5788,0,0,1-1.9729-.5931,3.4709,3.4709,0,0,1-1.2464-1.4678,3.446,3.446,0,0,0,.1552.3129,52.134,52.134,0,0,0-29.3613,12.3345,3.51,3.51,0,0,0-.4632.3792,3.5828,3.5828,0,0,1,5.0186,0,3.4853,3.4853,0,0,1,0,4.9684,3.5825,3.5825,0,0,1-5.0186,0,3.4853,3.4853,0,0,1,0-4.9684c-.042.0416-.0793.0869-.1189.13a51.082,51.082,0,0,0-6.7283,69.8356,52.16,52.16,0,0,0,34.771,13.2147c28.7149,0,52.0758-23.1255,52.0758-51.55A50.9346,50.9346,0,0,0,769.3954,318.7823ZM686.5,352.9967a3.4964,3.4964,0,0,1,0-4.9684,3.5717,3.5717,0,0,1,5.0191,0,3.4853,3.4853,0,0,1,0,4.9684,3.5727,3.5727,0,0,1-5.0191,0Zm9.0786,17.1255a3.566,3.566,0,0,1-5.0144,0,3.48,3.48,0,0,1,0-4.9638,3.566,3.566,0,0,1,5.0144,0,3.4808,3.4808,0,0,1,0,4.9638Zm0-34.3308a3.5774,3.5774,0,0,1-5.0144,0,3.4853,3.4853,0,0,1,0-4.9684,3.566,3.566,0,0,1,5.0144,0,3.4862,3.4862,0,0,1,0,4.9684Zm9.6882,46.0474a3.5828,3.5828,0,0,1-5.0186,0,3.4851,3.4851,0,0,1,0-4.9684,3.5711,3.5711,0,0,1,5.0186,0,3.4964,3.4964,0,0,1,0,4.9684Zm3.1226-20.0615a3.567,3.567,0,0,1-5.0144,0,3.4853,3.4853,0,0,1,0-4.9684,3.5774,3.5774,0,0,1,5.0144,0,3.4862,3.4862,0,0,1,0,4.9684Zm0-18.1748a3.566,3.566,0,0,1-5.0144,0,3.4848,3.4848,0,0,1,0-4.968,3.5764,3.5764,0,0,1,5.0144,0,3.4858,3.4858,0,0,1,0,4.968Z" transform="translate(-225 -189)"/><path class="cls-8" d="M729.6426,304.648a3.4142,3.4142,0,0,1-.0406-.4045A3.5338,3.5338,0,0,0,729.6426,304.648Z" transform="translate(-225 -189)"/><path class="cls-8" d="M677.2441,360.9615c-.1094-.51-.2043-1.0242-.2981-1.5393C677.04,359.9373,677.1347,360.452,677.2441,360.9615Z" transform="translate(-225 -189)"/><path class="cls-8" d="M677.8739,363.5463c-.1335-.4931-.2547-.9914-.3736-1.4906C677.6192,362.5549,677.74,363.0527,677.8739,363.5463Z" transform="translate(-225 -189)"/><path class="cls-8" d="M676.7492,358.3336c-.0868-.5389-.1547-1.0834-.2245-1.6275C676.594,357.25,676.6624,357.7947,676.7492,358.3336Z" transform="translate(-225 -189)"/><path class="cls-8" d="M687.8994,382.85a52.1589,52.1589,0,0,0,3.5614,3.8817A52.3671,52.3671,0,0,1,687.8994,382.85Z" transform="translate(-225 -189)"/><path class="cls-8" d="M681.6712,373.3706c-.2369-.4637-.469-.9307-.6921-1.4024C681.2022,372.44,681.4343,372.9065,681.6712,373.3706Z" transform="translate(-225 -189)"/><path class="cls-8" d="M676.1713,352.9538c-.0486-.91-.0755-1.8251-.0755-2.7465C676.0958,351.1287,676.1232,352.044,676.1713,352.9538Z" transform="translate(-225 -189)"/><path class="cls-8" d="M680.5333,370.9941q-.3129-.7-.6058-1.41Q680.22,370.2941,680.5333,370.9941Z" transform="translate(-225 -189)"/><path class="cls-8" d="M679.52,368.5638q-.2739-.7089-.526-1.429Q679.2476,367.8542,679.52,368.5638Z" transform="translate(-225 -189)"/><path class="cls-8" d="M678.6335,366.0807c-.1581-.4814-.3057-.9676-.45-1.4556C678.3278,365.1126,678.4754,365.5988,678.6335,366.0807Z" transform="translate(-225 -189)"/><path class="cls-9" d="M705.8817,337.6085a3.5936,3.5936,0,0,0-2.507,1.026,3.4854,3.4854,0,0,0,0,4.9685,3.566,3.566,0,0,0,5.0144,0,3.4864,3.4864,0,0,0,0-4.9685A3.5936,3.5936,0,0,0,705.8817,337.6085Z" transform="translate(-225 -189)"/><path class="cls-9" d="M705.8817,355.7829a3.597,3.597,0,0,0-2.507,1.0255,3.4859,3.4859,0,0,0,0,4.9689,3.567,3.567,0,0,0,5.0144,0,3.4868,3.4868,0,0,0,0-4.9689A3.5971,3.5971,0,0,0,705.8817,355.7829Z" transform="translate(-225 -189)"/><path class="cls-9" d="M702.7548,375.84a3.5875,3.5875,0,0,0-2.5069,1.03,3.4851,3.4851,0,0,0,0,4.9684,3.5825,3.5825,0,0,0,5.0186,0,3.4952,3.4952,0,0,0,0-4.9684A3.5935,3.5935,0,0,0,702.7548,375.84Z" transform="translate(-225 -189)"/><path class="cls-9" d="M702.7548,324.5712a3.6051,3.6051,0,0,0,2.5117-1.0255,3.4848,3.4848,0,0,0,0-4.968,3.5815,3.5815,0,0,0-5.0186,0,3.4846,3.4846,0,0,0,0,4.968A3.6012,3.6012,0,0,0,702.7548,324.5712Z" transform="translate(-225 -189)"/><path class="cls-9" d="M693.0709,329.7923a3.583,3.583,0,0,0-2.5074,1.03,3.4852,3.4852,0,0,0,0,4.9685,3.5794,3.5794,0,0,0,5.0148,0,3.4864,3.4864,0,0,0,0-4.9685A3.59,3.59,0,0,0,693.0709,329.7923Z" transform="translate(-225 -189)"/><path class="cls-9" d="M692.56,350.5146a3.52,3.52,0,0,0-1.0407-2.4863,3.5718,3.5718,0,0,0-5.0192,0,3.4976,3.4976,0,0,0,0,4.9684,3.5728,3.5728,0,0,0,5.0192,0A3.5152,3.5152,0,0,0,692.56,350.5146Z" transform="translate(-225 -189)"/><path class="cls-9" d="M693.0709,364.1282a3.5808,3.5808,0,0,0-2.5074,1.03,3.48,3.48,0,0,0,0,4.9638,3.5665,3.5665,0,0,0,5.0148,0,3.4808,3.4808,0,0,0,0-4.9638A3.5773,3.5773,0,0,0,693.0709,364.1282Z" transform="translate(-225 -189)"/><path class="cls-9" d="M750.7791,296.08c4.8691-6.37,16.0216-19.64,27.9913-24.9613a3.6578,3.6578,0,0,0,2.2871-4.4207,3.5548,3.5548,0,0,0-4.4657-2.264,42.991,42.991,0,0,0-12.7849,7.0055c-1.38-5.4523-4.3454-13.3684-10.6081-19.5683A43.8435,43.8435,0,0,0,736.6422,241.79c-6.4056-2.1874-10.5888-2.3714-12.4348-.5464a3.2741,3.2741,0,0,0-.7907,1.1937c-.8888,2.19-.4793,5.8992,1.3379,11.1147a43.2255,43.2255,0,0,0,10.1831,16.39c6.0669,6.0056,13.7614,8.9473,19.2433,10.3684a112.416,112.416,0,0,0-10.5572,13.353,59.5917,59.5917,0,0,0-15.4526-2.03C695.5439,291.6331,669,317.909,669,350.2073s26.5443,58.5748,59.1712,58.5748,59.1716-26.2764,59.1716-58.5748A58.6633,58.6633,0,0,0,750.7791,296.08Zm-2.598-39.2423c5.3357,5.2818,7.7917,12.36,8.8848,16.9321-4.6219-1.0811-11.7734-3.5123-17.11-8.7955a36.512,36.512,0,0,1-9.5981-17.6387A37.1453,37.1453,0,0,1,748.1811,256.8376Zm-72.0853,93.37c0-28.4246,23.3614-51.55,52.0754-51.55,1.7092,0,3.3995.0846,5.0681.2448a17.129,17.129,0,0,0-3.0537,3.2325,3.5053,3.5053,0,0,0,.9775,4.884,3.58,3.58,0,0,0,1.9729.5931,3.5275,3.5275,0,0,0,2.9382-1.557,12.4945,12.4945,0,0,1,7.6761-4.5655,12.2318,12.2318,0,0,1,2.6423,8.4537,3.5184,3.5184,0,0,0,3.02,3.9415,3.58,3.58,0,0,0,.502.0355,3.5365,3.5365,0,0,0,3.508-3.0205,17.9076,17.9076,0,0,0-.3953-5.9809,51.521,51.521,0,0,1,27.22,45.2894c0,28.425-23.3609,51.5505-52.0758,51.5505S676.0958,378.6324,676.0958,350.2073Z" transform="translate(-225 -189)"/><path class="cls-10" d="M757.0659,273.77c-1.0931-4.5724-3.5491-11.65-8.8848-16.9321a37.1409,37.1409,0,0,0-17.8233-9.5021,36.512,36.512,0,0,0,9.5981,17.6387C745.2925,270.2579,752.444,272.6891,757.0659,273.77Z" transform="translate(-225 -189)"/><path class="cls-2" d="M327.1807,285.7c-3,9,.6,19.1992,8.1,29.8486A300.9455,300.9455,0,0,1,401.8774,289.6c21.2994-5.4,23.2491,17.8491,22.1993,17.5493-16.1993-2.55-51.4478,5.4-80.5469,19.3491,10.4995,14.1,14.9995,26.399,11.55,43.0484-5.55,25.499-32.0986,38.999-53.9981,30.1484-14.0991-5.5488-25.3486-24.1489-11.5493-45.1479,6.6-10.35,16.3491-19.4991,27.4488-27.4488-8.55-14.2495-9.6-30.5991-2.1-43.3481,9.75-16.35,28.3491-23.999,40.4985-18.45,17.5493,8.25,12.2993,24.749,3.3,30.8989-17.249,11.7-21.8989-7.05-21.8989-7.05,18.1489-4.2,19.3491-14.8491,13.6494-17.5493C339.93,266.8008,330.63,275.5005,327.1807,285.7Zm-3,51.5977c-7.95,5.4-14.6993,11.2495-19.1993,17.2495-12.45,16.7993-8.1,34.0493,1.65,38.3989,12.1495,5.85,27.4488-.3,31.649-16.5C341.58,363.9971,336.93,353.4976,324.1807,337.2979Z" transform="translate(-225 -189)"/><path class="cls-2" d="M407.8784,317.9487c6.45-4.2,15-.6,18.1494,11.85,7.5.6,15.4493.6,23.6993-3.45a.5234.5234,0,0,0,.3.15c2.55,1.05,2.85,4.35-1.8,6.3-5.4,2.4-13.35,4.05-21.1495,4.5a68.2479,68.2479,0,0,1-.9,12.9c-2.55,18.1489-17.0991,41.8481-37.3486,39.7485-15.2993-1.35-26.8486-15-23.999-36.4487,2.85-22.1993,18.75-38.2486,37.1987-36.8985A20.9758,20.9758,0,0,1,407.8784,317.9487ZM384.48,350.0474c-2.55,15.75,1.5,26.0991,10.6494,26.6992,9.75.6,20.25-10.35,22.9492-26.3989a36.831,36.831,0,0,0-.45-13.5,32.7495,32.7495,0,0,1-4.05-.6c-7.2-1.35-12.8994-8.25-9.75-14.0991a21.1685,21.1685,0,0,0-3-.6C393.479,321.2485,387.0293,333.5483,384.48,350.0474Z" transform="translate(-225 -189)"/><path class="cls-2" d="M493.5259,338.498c10.1992-16.7993,19.9492-23.3989,28.6484-20.3994,7.2,2.55,7.8,14.3994,2.85,35.5489-5.7,23.8491-7.8,37.6484-4.35,38.999s7.35-2.4,10.5-11.1l.15-.15c2.85-1.05,5.1,1.2,3.3,5.85-5.55,14.1-15.8994,19.1992-24.2988,15.4492-8.4-3.6-11.4-18.5991-4.2-46.1982,4.65-17.8492,4.65-23.9991,1.5-25.0489-2.55-.9-8.5493,5.25-16.7993,23.9991-1.5,6.75-3.75,14.3994-6.45,23.249-3.3,9.9-11.85,10.95-19.499,8.1,0,0,2.55-10.9492,6.1494-28.9487,3.75-17.9991,3.6-25.7989.75-26.399s-8.7,5.1-17.8492,26.8492c-3.6,28.4985-8.1,32.6987-19.0493,28.4985a29.7778,29.7778,0,0,1-.6-7.2c0-34.4985-.75-55.9478,8.55-62.2471,10.2-6.75,19.3492,3.6,19.3492,3.6s-3.3,2.55-6.1495,20.5493c10.35-17.5493,23.0992-25.9492,30.5987-23.3994C491.4258,319.7485,494.2759,326.0483,493.5259,338.498Z" transform="translate(-225 -189)"/><path class="cls-2" d="M563.2759,362.647c16.6494-7.2,17.5493-35.6983,11.5493-37.3487-6.15-1.8-12.4492,13.35-15.1494,23.6993-3.3,12.45-2.4,29.3989,9.45,31.7988,12.6,2.55,27.5986-7.65,32.0986-20.0991a.1468.1468,0,0,1,.15-.15c2.85-.9,5.1,1.05,3.3,5.85-6.1494,15.5991-25.1987,27.2993-44.6977,23.0991-11.4-2.55-23.8491-16.95-19.9492-38.2485,4.05-21.2994,19.6489-35.6988,39.1484-32.2486,27.7485,5.1,19.6489,37.4981-16.2,49.3477C562.9756,368.3467,557.5762,365.1968,563.2759,362.647Z" transform="translate(-225 -189)"/><path class="cls-2" d="M636.7734,351.2476c-10.7993-.75-7.95-15.1495-7.95-15.1495,7.2,4.2,10.5.3,11.55-3.9.75-3.9-.9-8.1-5.4-8.55-6-.75-12.75,10.65-16.6494,25.1993-3.9,15.2993-.9,30.1489,7.5,31.7988,11.0991,2.25,26.9986-10.8,30.2984-20.0991h.3c2.55-1.05,5.1.9,3.15,5.7-5.1,12.8994-24.899,26.999-43.0484,23.1-11.25-2.4-21.749-16.95-17.8491-38.0991,4.2-22.1993,23.249-36.2989,39.1484-32.399,9.75,2.55,14.9991,9.75,13.6494,18.75C650.4229,345.5479,644.123,351.9976,636.7734,351.2476Z" transform="translate(-225 -189)"/><path class="cls-3" d="M315.1167,425.41a60.1752,60.1752,0,0,1-22.561-4.3536,51.6858,51.6858,0,0,1-29.9493-32.1211c-4.8559-15.3042-2.15-31.9492,7.6177-46.8867a111.2566,111.2566,0,0,1,18.9165-22.0132c-4.4887-16.56-2.55-33.5546,5.9156-47.9467.0234-.04.0468-.0791.0708-.1187,11.3979-19.1133,31.625-31.4634,51.5307-31.4634a43.659,43.659,0,0,1,18.2774,3.8731c.0766.0347.1533.07.23.1059,11.6108,5.4585,19.6914,14.2984,23.0688,24.9366,2.9341-.835,5.66-1.5537,8.1323-2.1524a47.6579,47.6579,0,0,1,11.5537-1.4839c26.8267,0,39.357,24.0889,39.3785,40.3692.02,14.9824-11.75,23.9668-23.14,23.997h-.06a23.1274,23.1274,0,0,1-3.5967-.2827h0a22.2025,22.2025,0,0,0-3.3276-.1928c-9.0733,0-24.6812,2.9433-41.316,8.5317a68.35,68.35,0,0,1,1.7442,36.0049c-.0157.0752-.0313.15-.0479.2251-6.4272,29.5322-32.6836,50.9687-62.4306,50.9717Zm19.9575-159.8311Z" transform="translate(-225 -189)"/><path class="cls-3" d="M391.332,413.0762c-1.5566,0-3.1357-.0782-4.6972-.2344a48.3073,48.3073,0,0,1-33.6338-17.9727c-9.32-11.6357-13.2183-27.3813-10.9781-44.3432,4.2593-33.0347,28.58-57.0059,57.8433-57.0059,1.2744,0,2.5664.0474,3.8413.1406q.6812.05,1.3589.14.6987.093,1.4268.1987a32.2681,32.2681,0,0,1,6.8051-.727c10.209,0,19.357,4.624,25.979,12.5791q.1575-.0726.3145-.15a23.0026,23.0026,0,0,1,20.3569.0411,25.6273,25.6273,0,0,1,14.9077,23.1059c.0357,10.8316-6.6543,20.4072-17.48,25.0518a66.3023,66.3023,0,0,1-9.0308,3.1513c-5.4087,28.1431-27.4692,56.02-57.0073,56.024ZM465.94,310.0356Z" transform="translate(-225 -189)"/><path class="cls-3" d="M515.8506,426.8857a36.3244,36.3244,0,0,1-14.7588-3.125,34.06,34.06,0,0,1-16.1846-14.8964,36.4443,36.4443,0,0,1-12.9306,2.31,43.2437,43.2437,0,0,1-15.1314-2.8271q-.8452-.315-1.6533-.6895a30.8482,30.8482,0,0,1-14.2466,3.5254h-.0034a39.6573,39.6573,0,0,1-14.3013-2.9131,23,23,0,0,1-13.8769-15.1543,50.0044,50.0044,0,0,1-1.4859-13.52q0-3.6738-.0073-7.1484c-.0259-16.086-.0459-28.7915,1.1733-39.3692,1.2305-10.6763,4.3819-25.896,17.4844-34.772.0689-.0463.1372-.0922.2061-.1377a36.0342,36.0342,0,0,1,19.9067-6.1054,37.7957,37.7957,0,0,1,19.4048,5.5459,37.5351,37.5351,0,0,1,14.33-2.959,31.3005,31.3005,0,0,1,16.24,4.4463,37.4133,37.4133,0,0,1,18.0274-4.6988,35.5949,35.5949,0,0,1,11.6294,1.9571c.06.021.1216.042.1821.0635,5.8633,2.0771,19.67,9.2368,21.2407,30.81.6045,8.3032-.5634,18.3633-3.6753,31.66l-.0249.105q-.4078,1.7072-.7758,3.2836a25.3055,25.3055,0,0,1,7.0717,6.9053c5.1123,7.4605,5.981,17.07,2.3828,26.3653-.0156.041-.0312.082-.0473.122-7.5781,19.253-22.9707,31.2139-40.1709,31.2158Zm4.1582-77.3115Z" transform="translate(-225 -189)"/><path class="cls-3" d="M568.0684,413.3584a61.56,61.56,0,0,1-12.9356-1.3779c-.0591-.0127-.1182-.0254-.1772-.0391-23.3389-5.22-43.7666-30.8994-37.5528-64.8364.01-.0513.0191-.1026.0288-.1538,5.8526-30.7813,28.3716-51.4629,56.0357-51.4629a55.9617,55.9617,0,0,1,9.7153.8623c.05.0093.1.0181.15.0273,20.5269,3.7725,34.0767,17.709,35.3613,36.3706a41.09,41.09,0,0,1-.5092,9.773,25.1741,25.1741,0,0,1,5.5053,5.7378c5.0928,7.35,6.0113,16.9048,2.5191,26.2148-.0449.12-.0908.2393-.1377.3579-8.9414,22.6817-32.791,38.5244-57.9981,38.5264Z" transform="translate(-225 -189)"/><path class="cls-3" d="M622.8477,413.0068a53.2266,53.2266,0,0,1-11.1543-1.1728c-22.4859-4.7988-41.9839-30.3369-35.6368-64.7573.0064-.0347.0127-.07.02-.1045,5.5835-29.5142,29.7973-51.77,56.3232-51.77a45.8119,45.8119,0,0,1,10.9033,1.309q.1715.0419.3418.0865c21.0284,5.5009,33.5884,23.6645,30.6035,44.2143-.102.7437-.2231,1.4771-.3637,2.2056a25.2625,25.2625,0,0,1,4.9482,5.438c5.0508,7.5034,5.8111,17.0991,2.0918,26.3428-7.4848,18.7968-31.2212,38.207-58.0722,38.2089Z" transform="translate(-225 -189)"/><path class="cls-4" d="M315.1167,417.41a52.2079,52.2079,0,0,1-19.5947-3.7832,43.6043,43.6043,0,0,1-25.29-27.1114c-4.1181-12.9785-1.7353-27.2231,6.708-40.12A107.46,107.46,0,0,1,298.33,322.61c-5.6738-15.9615-4.5108-32.64,3.6216-46.4649,10.03-16.82,27.56-27.6382,44.706-27.6382a35.72,35.72,0,0,1,14.9536,3.15c.05.023.1.0459.1494.0694,11.8853,5.5869,19.2261,15.3354,20.1412,26.7456q.0476.5976.0717,1.1958c6.1416-1.959,11.6836-3.5117,16.3091-4.63a39.6622,39.6622,0,0,1,9.6367-1.251c21.376,0,31.3609,19.3213,31.3785,32.3794.0141,10.357-7.8008,15.9668-15.1612,15.9868h-.04a15.1117,15.1117,0,0,1-2.3531-.1855h0a29.96,29.96,0,0,0-4.5712-.29c-11.4605,0-31.418,4.0185-51.7876,11.77,4.977,10.5581,7.6787,23.2344,4.3823,39.1435-.01.0489-.0205.0977-.0313.1465-5.6333,25.8833-28.602,44.6714-54.6142,44.6734Zm-1.9443-37.9629a6.6981,6.6981,0,0,0,2.8935.667h.001c3.6108,0,6.4868-2.7784,7.6934-7.4327.8671-3.2724,1.1484-6.7368-2.7452-13.68a41.0166,41.0166,0,0,0-4.0337,4.5459C310.9375,371.7031,312.1709,378.0259,313.1724,379.4473Z" transform="translate(-225 -189)"/><path class="cls-4" d="M391.3315,405.0762a39.3458,39.3458,0,0,1-3.9326-.1983,40.3782,40.3782,0,0,1-28.1538-15.01c-7.9531-9.9287-11.25-23.5469-9.2842-38.3462,3.7159-28.9458,24.708-50.002,49.9053-50.002,1.08,0,2.1763.04,3.2573.1192q.4446.0321.8868.0913c.9213.123,1.8608.2558,2.8164.4218a24.3412,24.3412,0,0,1,6.4716-.88c9.22,0,17.3711,5.102,22.6216,13.6362a20.9922,20.9922,0,0,0,7.1973-2.0254,15.0017,15.0017,0,0,1,13.3437.06,17.6574,17.6574,0,0,1,10.3955,15.9312c.0249,7.5708-4.8232,14.3335-12.665,17.687a65.3648,65.3648,0,0,1-12.8711,3.9624q-.1458,1.0093-.331,2.06c-3.7535,25.854-23.29,52.4892-49.6519,52.4922Zm9.0381-58.2276c-.3935,1.6592-.7568,3.49-1.0659,5.49-.0058.0351-.0112.0708-.0171.1064A39.0924,39.0924,0,0,0,398.7285,359a24.8708,24.8708,0,0,0,4.4551-10.5645A29.816,29.816,0,0,1,400.37,346.8486Z" transform="translate(-225 -189)"/><path class="cls-4" d="M515.8506,418.8857a28.3654,28.3654,0,0,1-11.5386-2.4482c-6.2593-2.7129-12.4873-8.15-15.4438-18.8086a27.22,27.22,0,0,1-16.8916,5.5459,35.29,35.29,0,0,1-12.3374-2.3232,14.9764,14.9764,0,0,1-4.5567-2.6914,21.9729,21.9729,0,0,1-14.1382,5.0234h-.0024a31.42,31.42,0,0,1-11.436-2.3828,14.9988,14.9988,0,0,1-9.05-9.8828,42.4276,42.4276,0,0,1-1.1778-11.3218q0-3.68-.0073-7.1611c-.0571-35.66-.0913-57.1841,15.1445-67.5049.045-.03.0894-.06.1343-.09a28.0588,28.0588,0,0,1,15.4917-4.7768,31.1067,31.1067,0,0,1,18.79,6.747,31.3859,31.3859,0,0,1,14.9448-4.16,23.8016,23.8016,0,0,1,7.6792,1.2466,22.6231,22.6231,0,0,1,8.082,4.8427,31.1954,31.1954,0,0,1,18.5059-6.3418,27.6148,27.6148,0,0,1,9.0215,1.52c.04.0136.0791.0273.1186.0415,5.4424,1.9277,14.75,7.59,15.9331,23.85.544,7.4731-.5635,16.7695-3.4858,29.2558-.8721,3.649-1.6123,6.8726-2.24,9.7217a17.3938,17.3938,0,0,1,9.7012,6.9175c3.5977,5.25,4.1519,12.16,1.5215,18.9556-6.3784,16.206-18.919,26.2236-32.7588,26.2255Z" transform="translate(-225 -189)"/><path class="cls-4" d="M568.0684,405.3584a53.55,53.55,0,0,1-11.251-1.1982c-.0386-.0088-.0772-.0176-.1153-.0254-19.6484-4.3955-36.7763-26.3892-31.43-55.5889l.019-.1c5.1128-26.8906,24.4732-44.9575,48.1763-44.9575a47.8828,47.8828,0,0,1,8.3213.74c16.8569,3.0977,27.9028,14.23,28.9243,29.0694a34.3331,34.3331,0,0,1-1.7373,13.185,17.346,17.346,0,0,1,8.1387,6.333c2.102,3.0327,5.1049,9.5147,1.604,18.8487q-.0439.1171-.09.2338c-7.7656,19.6993-28.5547,33.458-50.5556,33.46Z" transform="translate(-225 -189)"/><path class="cls-4" d="M622.8477,405.0068a45.1918,45.1918,0,0,1-9.4742-.9951c-18.7563-4.0019-34.9135-25.853-29.45-55.4844,4.8941-25.8691,25.7285-45.3256,48.4756-45.3256a37.8039,37.8039,0,0,1,8.9976,1.0786c.0747.0185.1489.0371.2226.0566,17.2276,4.5064,27.1421,18.7061,24.7066,35.3574a32.8858,32.8858,0,0,1-1.7339,6.9629,17.2768,17.2768,0,0,1,7.6035,6.2652c3.5469,5.269,4.0205,12.1543,1.3022,18.9-6.4873,16.3217-27.1845,33.1821-50.6464,33.184Z" transform="translate(-225 -189)"/><path class="cls-5" d="M327.1807,285.7c-3,9,.6,19.1992,8.1,29.8486A300.9455,300.9455,0,0,1,401.8774,289.6c21.2994-5.4,23.2491,17.8491,22.1993,17.5493-16.1993-2.55-51.4478,5.4-80.5469,19.3491,10.4995,14.1,14.9995,26.399,11.55,43.0484-5.55,25.499-32.0986,38.999-53.9981,30.1484-14.0991-5.5488-25.3486-24.1489-11.5493-45.1479,6.6-10.35,16.3491-19.4991,27.4488-27.4488-8.55-14.2495-9.6-30.5991-2.1-43.3481,9.75-16.35,28.3491-23.999,40.4985-18.45,17.5493,8.25,12.2993,24.749,3.3,30.8989-17.249,11.7-21.8989-7.05-21.8989-7.05,18.1489-4.2,19.3491-14.8491,13.6494-17.5493C339.93,266.8008,330.63,275.5005,327.1807,285.7Zm-3,51.5977c-7.95,5.4-14.6993,11.2495-19.1993,17.2495-12.45,16.7993-8.1,34.0493,1.65,38.3989,12.1495,5.85,27.4488-.3,31.649-16.5C341.58,363.9971,336.93,353.4976,324.1807,337.2979Z" transform="translate(-225 -189)"/><path class="cls-5" d="M407.8784,317.9487c6.45-4.2,15-.6,18.1494,11.85,7.5.6,15.4493.6,23.6993-3.45a.5234.5234,0,0,0,.3.15c2.55,1.05,2.85,4.35-1.8,6.3-5.4,2.4-13.35,4.05-21.1495,4.5a68.2479,68.2479,0,0,1-.9,12.9c-2.55,18.1489-17.0991,41.8481-37.3486,39.7485-15.2993-1.35-26.8486-15-23.999-36.4487,2.85-22.1993,18.75-38.2486,37.1987-36.8985A20.9758,20.9758,0,0,1,407.8784,317.9487ZM384.48,350.0474c-2.55,15.75,1.5,26.0991,10.6494,26.6992,9.75.6,20.25-10.35,22.9492-26.3989a36.831,36.831,0,0,0-.45-13.5,32.7495,32.7495,0,0,1-4.05-.6c-7.2-1.35-12.8994-8.25-9.75-14.0991a21.1685,21.1685,0,0,0-3-.6C393.479,321.2485,387.0293,333.5483,384.48,350.0474Z" transform="translate(-225 -189)"/><path class="cls-5" d="M493.5259,338.498c10.1992-16.7993,19.9492-23.3989,28.6484-20.3994,7.2,2.55,7.8,14.3994,2.85,35.5489-5.7,23.8491-7.8,37.6484-4.35,38.999s7.35-2.4,10.5-11.1l.15-.15c2.85-1.05,5.1,1.2,3.3,5.85-5.55,14.1-15.8994,19.1992-24.2988,15.4492-8.4-3.6-11.4-18.5991-4.2-46.1982,4.65-17.8492,4.65-23.9991,1.5-25.0489-2.55-.9-8.5493,5.25-16.7993,23.9991-1.5,6.75-3.75,14.3994-6.45,23.249-3.3,9.9-11.85,10.95-19.499,8.1,0,0,2.55-10.9492,6.1494-28.9487,3.75-17.9991,3.6-25.7989.75-26.399s-8.7,5.1-17.8492,26.8492c-3.6,28.4985-8.1,32.6987-19.0493,28.4985a29.7778,29.7778,0,0,1-.6-7.2c0-34.4985-.75-55.9478,8.55-62.2471,10.2-6.75,19.3492,3.6,19.3492,3.6s-3.3,2.55-6.1495,20.5493c10.35-17.5493,23.0992-25.9492,30.5987-23.3994C491.4258,319.7485,494.2759,326.0483,493.5259,338.498Z" transform="translate(-225 -189)"/><path class="cls-5" d="M563.2759,362.647c16.6494-7.2,17.5493-35.6983,11.5493-37.3487-6.15-1.8-12.4492,13.35-15.1494,23.6993-3.3,12.45-2.4,29.3989,9.45,31.7988,12.6,2.55,27.5986-7.65,32.0986-20.0991a.1468.1468,0,0,1,.15-.15c2.85-.9,5.1,1.05,3.3,5.85-6.1494,15.5991-25.1987,27.2993-44.6977,23.0991-11.4-2.55-23.8491-16.95-19.9492-38.2485,4.05-21.2994,19.6489-35.6988,39.1484-32.2486,27.7485,5.1,19.6489,37.4981-16.2,49.3477C562.9756,368.3467,557.5762,365.1968,563.2759,362.647Z" transform="translate(-225 -189)"/><path class="cls-5" d="M636.7734,351.2476c-10.7993-.75-7.95-15.1495-7.95-15.1495,7.2,4.2,10.5.3,11.55-3.9.75-3.9-.9-8.1-5.4-8.55-6-.75-12.75,10.65-16.6494,25.1993-3.9,15.2993-.9,30.1489,7.5,31.7988,11.0991,2.25,26.9986-10.8,30.2984-20.0991h.3c2.55-1.05,5.1.9,3.15,5.7-5.1,12.8994-24.899,26.999-43.0484,23.1-11.25-2.4-21.749-16.95-17.8491-38.0991,4.2-22.1993,23.249-36.2989,39.1484-32.399,9.75,2.55,14.9991,9.75,13.6494,18.75C650.4229,345.5479,644.123,351.9976,636.7734,351.2476Z" transform="translate(-225 -189)"/><g class="cls-6"><path class="cls-11" d="M327.1807,285.7c-3,9,.6,19.1992,8.1,29.8486A300.9455,300.9455,0,0,1,401.8774,289.6c21.2994-5.4,23.2491,17.8491,22.1993,17.5493-16.1993-2.55-51.4478,5.4-80.5469,19.3491,10.4995,14.1,14.9995,26.399,11.55,43.0484-5.55,25.499-32.0986,38.999-53.9981,30.1484-14.0991-5.5488-25.3486-24.1489-11.5493-45.1479,6.6-10.35,16.3491-19.4991,27.4488-27.4488-8.55-14.2495-9.6-30.5991-2.1-43.3481,9.75-16.35,28.3491-23.999,40.4985-18.45,17.5493,8.25,12.2993,24.749,3.3,30.8989-17.249,11.7-21.8989-7.05-21.8989-7.05,18.1489-4.2,19.3491-14.8491,13.6494-17.5493C339.93,266.8008,330.63,275.5005,327.1807,285.7Zm-3,51.5977c-7.95,5.4-14.6993,11.2495-19.1993,17.2495-12.45,16.7993-8.1,34.0493,1.65,38.3989,12.1495,5.85,27.4488-.3,31.649-16.5C341.58,363.9971,336.93,353.4976,324.1807,337.2979Z" transform="translate(-225 -189)"/><path class="cls-11" d="M407.8784,317.9487c6.45-4.2,15-.6,18.1494,11.85,7.5.6,15.4493.6,23.6993-3.45a.5234.5234,0,0,0,.3.15c2.55,1.05,2.85,4.35-1.8,6.3-5.4,2.4-13.35,4.05-21.1495,4.5a68.2479,68.2479,0,0,1-.9,12.9c-2.55,18.1489-17.0991,41.8481-37.3486,39.7485-15.2993-1.35-26.8486-15-23.999-36.4487,2.85-22.1993,18.75-38.2486,37.1987-36.8985A20.9758,20.9758,0,0,1,407.8784,317.9487ZM384.48,350.0474c-2.55,15.75,1.5,26.0991,10.6494,26.6992,9.75.6,20.25-10.35,22.9492-26.3989a36.831,36.831,0,0,0-.45-13.5,32.7495,32.7495,0,0,1-4.05-.6c-7.2-1.35-12.8994-8.25-9.75-14.0991a21.1685,21.1685,0,0,0-3-.6C393.479,321.2485,387.0293,333.5483,384.48,350.0474Z" transform="translate(-225 -189)"/><path class="cls-11" d="M493.5259,338.498c10.1992-16.7993,19.9492-23.3989,28.6484-20.3994,7.2,2.55,7.8,14.3994,2.85,35.5489-5.7,23.8491-7.8,37.6484-4.35,38.999s7.35-2.4,10.5-11.1l.15-.15c2.85-1.05,5.1,1.2,3.3,5.85-5.55,14.1-15.8994,19.1992-24.2988,15.4492-8.4-3.6-11.4-18.5991-4.2-46.1982,4.65-17.8492,4.65-23.9991,1.5-25.0489-2.55-.9-8.5493,5.25-16.7993,23.9991-1.5,6.75-3.75,14.3994-6.45,23.249-3.3,9.9-11.85,10.95-19.499,8.1,0,0,2.55-10.9492,6.1494-28.9487,3.75-17.9991,3.6-25.7989.75-26.399s-8.7,5.1-17.8492,26.8492c-3.6,28.4985-8.1,32.6987-19.0493,28.4985a29.7778,29.7778,0,0,1-.6-7.2c0-34.4985-.75-55.9478,8.55-62.2471,10.2-6.75,19.3492,3.6,19.3492,3.6s-3.3,2.55-6.1495,20.5493c10.35-17.5493,23.0992-25.9492,30.5987-23.3994C491.4258,319.7485,494.2759,326.0483,493.5259,338.498Z" transform="translate(-225 -189)"/><path class="cls-11" d="M563.2759,362.647c16.6494-7.2,17.5493-35.6983,11.5493-37.3487-6.15-1.8-12.4492,13.35-15.1494,23.6993-3.3,12.45-2.4,29.3989,9.45,31.7988,12.6,2.55,27.5986-7.65,32.0986-20.0991a.1468.1468,0,0,1,.15-.15c2.85-.9,5.1,1.05,3.3,5.85-6.1494,15.5991-25.1987,27.2993-44.6977,23.0991-11.4-2.55-23.8491-16.95-19.9492-38.2485,4.05-21.2994,19.6489-35.6988,39.1484-32.2486,27.7485,5.1,19.6489,37.4981-16.2,49.3477C562.9756,368.3467,557.5762,365.1968,563.2759,362.647Z" transform="translate(-225 -189)"/><path class="cls-11" d="M636.7734,351.2476c-10.7993-.75-7.95-15.1495-7.95-15.1495,7.2,4.2,10.5.3,11.55-3.9.75-3.9-.9-8.1-5.4-8.55-6-.75-12.75,10.65-16.6494,25.1993-3.9,15.2993-.9,30.1489,7.5,31.7988,11.0991,2.25,26.9986-10.8,30.2984-20.0991h.3c2.55-1.05,5.1.9,3.15,5.7-5.1,12.8994-24.899,26.999-43.0484,23.1-11.25-2.4-21.749-16.95-17.8491-38.0991,4.2-22.1993,23.249-36.2989,39.1484-32.399,9.75,2.55,14.9991,9.75,13.6494,18.75C650.4229,345.5479,644.123,351.9976,636.7734,351.2476Z" transform="translate(-225 -189)"/></g></g></g></svg>